<svg width="11" height="11" viewBox="0 0 11 11" fill="none" xmlns="http://www.w3.org/2000/svg">
<g clip-path="url(#clip0_1_1614)">
<path d="M7.18518 5.45723C7.18518 5.14351 6.95376 4.88638 6.6606 4.88638C6.36747 4.88638 6.13605 5.14351 6.13605 5.45723C6.13605 5.77095 6.37261 6.02809 6.6606 6.02809C6.95376 6.02809 7.18518 5.77095 7.18518 5.45723ZM4.78348 4.88638C4.49034 4.88638 4.2589 5.14351 4.2589 5.45723C4.2589 5.77095 4.49548 6.02809 4.78348 6.02809C5.07662 6.02809 5.30805 5.77095 5.30805 5.45723C5.31319 5.14351 5.07662 4.88638 4.78348 4.88638ZM10.2143 1.63096C10.2143 1.04467 9.74117 0.571533 9.16001 0.571533H2.26864C1.68749 0.571533 1.21436 1.04467 1.21436 1.63096V8.58406C1.21436 9.17035 1.68749 9.64349 2.26864 9.64349H8.1006L7.82803 8.69206C9.33303 10.0912 8.91867 9.71223 10.2143 10.8572L10.2143 1.63096ZM8.7486 6.50636C8.7486 6.50636 8.31147 7.25207 7.1749 7.28807C7.1749 7.28807 6.98976 7.06693 6.83546 6.87149C7.50918 6.68121 7.76632 6.2595 7.76632 6.2595C7.55548 6.39836 7.3549 6.49607 7.1749 6.56293C6.06686 7.02832 4.83383 6.86904 3.96578 6.38294C3.95534 6.37595 3.83059 6.30731 3.75492 6.25436C3.75492 6.25436 4.00178 6.66579 4.65491 6.86121C4.50063 7.05665 4.31035 7.28807 4.31035 7.28807C3.17379 7.25207 2.74179 6.50636 2.74179 6.50636C2.74179 4.85038 3.48236 3.50809 3.48236 3.50809C4.22291 2.95267 4.92748 2.96809 4.92748 2.96809L4.9789 3.02981C4.05319 3.29723 3.62635 3.70352 3.62635 3.70352C3.62635 3.70352 3.73949 3.64181 3.92977 3.55439C5.1148 3.03385 6.54982 3.03397 7.77147 3.70352C7.77147 3.70352 7.36518 3.31781 6.4909 3.05037L6.5629 2.96809C6.5629 2.96809 7.26746 2.95267 8.00803 3.50809C8.00803 3.50809 8.7486 4.85037 8.7486 6.50635L8.7486 6.50636Z" fill="#7A7AA9"/>
</g>
<defs>
<clipPath id="clip0_1_1614">
<rect width="10.2857" height="10.2857" fill="white" transform="translate(0.571533 0.571411)"/>
</clipPath>
</defs>
</svg>
