<svg width="13" height="13" viewBox="0 0 13 13" fill="none" xmlns="http://www.w3.org/2000/svg">
<path d="M12.22 12.4976C12.22 12.7755 11.9876 13 11.7 13H7.0525V7.09662H12.22V12.4976ZM5.9475 13H1.3C1.01238 13 0.780001 12.7755 0.780001 12.4976V7.09662H5.9475V13ZM0.52 3.3285H2.9185C2.6975 2.99251 2.5675 2.59372 2.5675 2.16667C2.5675 0.97186 3.57338 0 4.81 0C5.48275 0 6.08888 0.288889 6.5 0.744203C6.91113 0.288889 7.51725 0 8.19 0C9.42663 0 10.4325 0.97186 10.4325 2.16667C10.4325 2.59372 10.3041 2.99251 10.0815 3.3285H12.48C12.7676 3.3285 13 3.55302 13 3.83092V6.02899H7.0525V3.3285H5.9475V6.02899H0V3.83092C0 3.55302 0.232375 3.3285 0.52 3.3285ZM7.0525 3.2657H8.19C8.81725 3.2657 9.3275 2.77271 9.3275 2.16667C9.3275 1.56063 8.81725 1.06763 8.19 1.06763C7.56275 1.06763 7.0525 1.56063 7.0525 2.16667V3.2657ZM4.81 3.2657H5.9475V2.16667C5.9475 1.56063 5.43725 1.06763 4.81 1.06763C4.18275 1.06763 3.6725 1.56063 3.6725 2.16667C3.6725 2.77271 4.18275 3.2657 4.81 3.2657Z" fill="#7781FF"/>
</svg>
