<svg width="1920" height="210" viewBox="0 0 1920 210" fill="none" xmlns="http://www.w3.org/2000/svg">
<g style="mix-blend-mode:overlay" opacity="0.33">
<path d="M-110.939 205H-112.939V207H-110.939V205ZM-110.939 5V3H-112.939V5H-110.939ZM-53.4395 5H-51.4395V3H-53.4395V5ZM-53.4395 82.5H-55.4395V84.5H-53.4395V82.5ZM35.0606 82.5V84.5H37.0606V82.5H35.0606ZM35.0606 5V3H33.0606V5H35.0606ZM92.5606 5H94.5606V3H92.5606V5ZM92.5606 205V207H94.5606V205H92.5606ZM35.0606 205H33.0606V207H35.0606V205ZM35.0606 125H37.0606V123H35.0606V125ZM-53.4395 125V123H-55.4395V125H-53.4395ZM-53.4395 205V207H-51.4395V205H-53.4395ZM-108.939 205V5H-112.939V205H-108.939ZM-110.939 7H-53.4395V3H-110.939V7ZM-55.4395 5V82.5H-51.4395V5H-55.4395ZM-53.4395 84.5H35.0606V80.5H-53.4395V84.5ZM37.0606 82.5V5H33.0606V82.5H37.0606ZM35.0606 7H92.5606V3H35.0606V7ZM90.5606 5V205H94.5606V5H90.5606ZM92.5606 203H35.0606V207H92.5606V203ZM37.0606 205V125H33.0606V205H37.0606ZM35.0606 123H-53.4395V127H35.0606V123ZM-55.4395 125V205H-51.4395V125H-55.4395ZM-53.4395 203H-110.939V207H-53.4395V203ZM166.189 202.75L165.517 204.633L165.527 204.637L165.537 204.641L166.189 202.75ZM130.939 181.75L129.538 183.177L129.551 183.19L129.564 183.202L130.939 181.75ZM109.689 148.5L111.564 147.803L109.689 148.5ZM109.689 61.5L111.564 62.197L109.689 61.5ZM130.939 28.5L132.328 29.9397L132.328 29.9392L130.939 28.5ZM166.189 7.49999L166.842 9.3905L166.852 9.38704L166.862 9.38348L166.189 7.49999ZM263.189 7.49999L262.517 9.38348L262.527 9.38704L262.537 9.3905L263.189 7.49999ZM298.189 28.5L296.788 29.9269L296.801 29.9395L296.814 29.9519L298.189 28.5ZM319.689 61.5L321.564 60.803L319.689 61.5ZM319.689 148.5L321.564 149.197L319.689 148.5ZM298.189 181.75L299.578 183.19L299.578 183.189L298.189 181.75ZM263.189 202.75L263.842 204.641L263.852 204.637L263.862 204.633L263.189 202.75ZM255.689 153.25L257.129 154.639L257.135 154.632L257.141 154.626L255.689 153.25ZM255.689 57.25L254.227 58.6137L254.232 58.62L254.238 58.6262L255.689 57.25ZM173.689 57.25L175.141 58.6262L175.147 58.62L175.152 58.6137L173.689 57.25ZM173.689 153.25L172.238 154.626L172.244 154.632L172.25 154.639L173.689 153.25ZM214.689 208C196.527 208 180.589 205.605 166.842 200.859L165.537 204.641C179.79 209.561 196.185 212 214.689 212V208ZM166.862 200.867C153.088 195.947 141.587 189.083 132.315 180.298L129.564 183.202C139.291 192.417 151.291 199.553 165.517 204.633L166.862 200.867ZM132.341 180.323C123.229 171.374 116.301 160.545 111.564 147.803L107.815 149.197C112.744 162.455 119.983 173.792 129.538 183.177L132.341 180.323ZM111.564 147.803C106.825 135.057 104.439 120.798 104.439 105H100.439C100.439 121.202 102.887 135.943 107.815 149.197L111.564 147.803ZM104.439 105C104.439 89.2019 106.825 74.9425 111.564 62.197L107.815 60.803C102.887 74.0575 100.439 88.7981 100.439 105H104.439ZM111.564 62.197C116.3 49.4579 123.225 38.7174 132.328 29.9397L129.551 27.0603C119.987 36.2826 112.745 47.5421 107.815 60.803L111.564 62.197ZM132.328 29.9392C141.594 20.9982 153.084 14.1404 166.842 9.3905L165.537 5.60949C151.295 10.5262 139.285 17.6685 129.551 27.0608L132.328 29.9392ZM166.862 9.38348C180.603 4.47618 196.534 1.99998 214.689 1.99998V-2.00001C196.178 -2.00001 179.776 0.523796 165.517 5.61651L166.862 9.38348ZM214.689 1.99998C232.845 1.99998 248.776 4.47618 262.517 9.38348L263.862 5.61651C249.603 0.523796 233.201 -2.00001 214.689 -2.00001V1.99998ZM262.537 9.3905C276.293 14.1397 287.693 20.9944 296.788 29.9269L299.591 27.0731C290.019 17.6722 278.086 10.5269 263.842 5.60949L262.537 9.3905ZM296.814 29.9519C306.079 38.7292 313.081 49.4659 317.815 62.197L321.564 60.803C316.631 47.5341 309.3 36.2708 299.565 27.0481L296.814 29.9519ZM317.815 62.197C322.554 74.9425 324.939 89.2019 324.939 105H328.939C328.939 88.7981 326.492 74.0575 321.564 60.803L317.815 62.197ZM324.939 105C324.939 120.798 322.554 135.057 317.815 147.803L321.564 149.197C326.492 135.943 328.939 121.202 328.939 105H324.939ZM317.815 147.803C313.08 160.537 306.074 171.363 296.801 180.311L299.578 183.189C309.305 173.804 316.632 162.463 321.564 149.197L317.815 147.803ZM296.801 180.31C287.7 189.086 276.289 195.948 262.517 200.867L263.862 204.633C278.09 199.552 290.012 192.414 299.578 183.19L296.801 180.31ZM262.537 200.859C248.79 205.605 232.851 208 214.689 208V212C233.194 212 249.589 209.561 263.842 204.641L262.537 200.859ZM214.689 169.5C233.189 169.5 247.461 164.658 257.129 154.639L254.25 151.861C245.585 160.842 232.523 165.5 214.689 165.5V169.5ZM257.141 154.626C266.835 144.403 271.439 127.683 271.439 105H267.439C267.439 127.317 262.877 142.763 254.238 151.874L257.141 154.626ZM271.439 105C271.439 82.6405 266.831 66.0924 257.141 55.8738L254.238 58.6262C262.881 67.7409 267.439 83.0262 267.439 105H271.439ZM257.152 55.8862C247.488 45.5195 233.208 40.5 214.689 40.5V44.5C232.504 44.5 245.557 49.3139 254.227 58.6137L257.152 55.8862ZM214.689 40.5C196.171 40.5 181.89 45.5195 172.227 55.8862L175.152 58.6137C183.822 49.3139 196.875 44.5 214.689 44.5V40.5ZM172.238 55.8738C162.548 66.0924 157.939 82.6405 157.939 105H161.939C161.939 83.0262 166.497 67.7409 175.141 58.6262L172.238 55.8738ZM157.939 105C157.939 127.683 162.544 144.403 172.238 154.626L175.141 151.874C166.501 142.763 161.939 127.317 161.939 105H157.939ZM172.25 154.639C181.918 164.658 196.19 169.5 214.689 169.5V165.5C196.856 165.5 183.794 160.842 175.129 151.861L172.25 154.639ZM484.799 98.75L486.665 98.03L484.799 93.1946L482.933 98.03L484.799 98.75ZM443.799 205V207H445.171L445.665 205.72L443.799 205ZM379.799 205L377.891 205.599L378.33 207H379.799V205ZM317.049 5V3H314.325L315.141 5.59872L317.049 5ZM376.549 5L378.477 4.46928L378.073 3H376.549V5ZM414.049 141.25L412.121 141.781L413.698 147.512L415.906 141.993L414.049 141.25ZM461.549 22.5V20.5H460.195L459.692 21.7572L461.549 22.5ZM507.799 22.5L509.657 21.7599L509.155 20.5H507.799V22.5ZM555.799 143L553.941 143.74L556.08 149.11L557.717 143.566L555.799 143ZM596.549 5V3H595.054L594.631 4.43359L596.549 5ZM652.549 5L654.457 5.59872L655.272 3H652.549V5ZM589.799 205V207H591.267L591.707 205.599L589.799 205ZM525.799 205L523.933 205.72L524.427 207H525.799V205ZM482.933 98.03L441.933 204.28L445.665 205.72L486.665 99.47L482.933 98.03ZM443.799 203H379.799V207H443.799V203ZM381.707 204.401L318.957 4.40128L315.141 5.59872L377.891 205.599L381.707 204.401ZM317.049 7H376.549V3H317.049V7ZM374.621 5.53072L412.121 141.781L415.977 140.719L378.477 4.46928L374.621 5.53072ZM415.906 141.993L463.406 23.2428L459.692 21.7572L412.192 140.507L415.906 141.993ZM461.549 24.5H507.799V20.5H461.549V24.5ZM505.941 23.2401L553.941 143.74L557.657 142.26L509.657 21.7599L505.941 23.2401ZM557.717 143.566L598.467 5.5664L594.631 4.43359L553.881 142.434L557.717 143.566ZM596.549 7H652.549V3H596.549V7ZM650.641 4.40128L587.891 204.401L591.707 205.599L654.457 5.59872L650.641 4.40128ZM589.799 203H525.799V207H589.799V203ZM527.665 204.28L486.665 98.03L482.933 99.47L523.933 205.72L527.665 204.28ZM862.4 205H860.4V207H862.4V205ZM862.4 47.5H864.4V45.5H862.4V47.5ZM776.15 47.5H774.15V49.5H776.15V47.5ZM776.15 5V3H774.15V5H776.15ZM1004.15 5H1006.15V3H1004.15V5ZM1004.15 47.5V49.5H1006.15V47.5H1004.15ZM919.9 47.5V45.5H917.9V47.5H919.9ZM919.9 205V207H921.9V205H919.9ZM864.4 205V47.5H860.4V205H864.4ZM862.4 45.5H776.15V49.5H862.4V45.5ZM778.15 47.5V5H774.15V47.5H778.15ZM776.15 7H1004.15V3H776.15V7ZM1002.15 5V47.5H1006.15V5H1002.15ZM1004.15 45.5H919.9V49.5H1004.15V45.5ZM917.9 47.5V205H921.9V47.5H917.9ZM919.9 203H862.4V207H919.9V203ZM1066.58 202.75L1065.91 204.633L1065.92 204.637L1065.93 204.641L1066.58 202.75ZM1031.33 181.75L1029.93 183.177L1029.94 183.19L1029.95 183.202L1031.33 181.75ZM1010.08 148.5L1011.95 147.803L1010.08 148.5ZM1010.08 61.5L1011.95 62.197L1010.08 61.5ZM1031.33 28.5L1032.72 29.9397L1032.72 29.9392L1031.33 28.5ZM1066.58 7.49999L1067.23 9.3905L1067.24 9.38704L1067.25 9.38348L1066.58 7.49999ZM1163.58 7.49999L1162.91 9.38348L1162.92 9.38704L1162.93 9.3905L1163.58 7.49999ZM1198.58 28.5L1197.18 29.9269L1197.19 29.9395L1197.2 29.9519L1198.58 28.5ZM1220.08 61.5L1221.95 60.803L1220.08 61.5ZM1220.08 148.5L1221.95 149.197L1220.08 148.5ZM1198.58 181.75L1199.97 183.19L1199.97 183.189L1198.58 181.75ZM1163.58 202.75L1164.23 204.641L1164.24 204.637L1164.25 204.633L1163.58 202.75ZM1156.08 153.25L1157.52 154.639L1157.53 154.632L1157.53 154.626L1156.08 153.25ZM1156.08 57.25L1154.62 58.6137L1154.62 58.62L1154.63 58.6262L1156.08 57.25ZM1074.08 57.25L1075.53 58.6262L1075.54 58.62L1075.54 58.6137L1074.08 57.25ZM1074.08 153.25L1072.63 154.626L1072.63 154.632L1072.64 154.639L1074.08 153.25ZM1115.08 208C1096.92 208 1080.98 205.605 1067.23 200.859L1065.93 204.641C1080.18 209.561 1096.58 212 1115.08 212V208ZM1067.25 200.867C1053.48 195.947 1041.98 189.083 1032.71 180.298L1029.95 183.202C1039.68 192.417 1051.68 199.553 1065.91 204.633L1067.25 200.867ZM1032.73 180.323C1023.62 171.374 1016.69 160.545 1011.95 147.803L1008.21 149.197C1013.13 162.455 1020.37 173.792 1029.93 183.177L1032.73 180.323ZM1011.95 147.803C1007.22 135.057 1004.83 120.798 1004.83 105H1000.83C1000.83 121.202 1003.28 135.943 1008.21 149.197L1011.95 147.803ZM1004.83 105C1004.83 89.2019 1007.22 74.9425 1011.95 62.197L1008.21 60.803C1003.28 74.0575 1000.83 88.7981 1000.83 105H1004.83ZM1011.95 62.197C1016.69 49.4579 1023.62 38.7174 1032.72 29.9397L1029.94 27.0603C1020.38 36.2826 1013.14 47.5421 1008.21 60.803L1011.95 62.197ZM1032.72 29.9392C1041.98 20.9982 1053.47 14.1404 1067.23 9.3905L1065.93 5.60949C1051.69 10.5262 1039.68 17.6685 1029.94 27.0608L1032.72 29.9392ZM1067.25 9.38348C1080.99 4.47618 1096.92 1.99998 1115.08 1.99998V-2.00001C1096.57 -2.00001 1080.17 0.523796 1065.91 5.61651L1067.25 9.38348ZM1115.08 1.99998C1133.24 1.99998 1149.17 4.47618 1162.91 9.38348L1164.25 5.61651C1149.99 0.523796 1133.59 -2.00001 1115.08 -2.00001V1.99998ZM1162.93 9.3905C1176.68 14.1397 1188.08 20.9944 1197.18 29.9269L1199.98 27.0731C1190.41 17.6722 1178.48 10.5269 1164.23 5.60949L1162.93 9.3905ZM1197.2 29.9519C1206.47 38.7292 1213.47 49.4659 1218.21 62.197L1221.95 60.803C1217.02 47.5341 1209.69 36.2708 1199.96 27.0481L1197.2 29.9519ZM1218.21 62.197C1222.94 74.9425 1225.33 89.2019 1225.33 105H1229.33C1229.33 88.7981 1226.88 74.0575 1221.95 60.803L1218.21 62.197ZM1225.33 105C1225.33 120.798 1222.94 135.057 1218.21 147.803L1221.95 149.197C1226.88 135.943 1229.33 121.202 1229.33 105H1225.33ZM1218.21 147.803C1213.47 160.537 1206.46 171.363 1197.19 180.311L1199.97 183.189C1209.7 173.804 1217.02 162.463 1221.95 149.197L1218.21 147.803ZM1197.19 180.31C1188.09 189.086 1176.68 195.948 1162.91 200.867L1164.25 204.633C1178.48 199.552 1190.4 192.414 1199.97 183.19L1197.19 180.31ZM1162.93 200.859C1149.18 205.605 1133.24 208 1115.08 208V212C1133.58 212 1149.98 209.561 1164.23 204.641L1162.93 200.859ZM1115.08 169.5C1133.58 169.5 1147.85 164.658 1157.52 154.639L1154.64 151.861C1145.98 160.842 1132.91 165.5 1115.08 165.5V169.5ZM1157.53 154.626C1167.23 144.403 1171.83 127.683 1171.83 105H1167.83C1167.83 127.317 1163.27 142.763 1154.63 151.874L1157.53 154.626ZM1171.83 105C1171.83 82.6405 1167.22 66.0924 1157.53 55.8738L1154.63 58.6262C1163.27 67.7409 1167.83 83.0262 1167.83 105H1171.83ZM1157.54 55.8862C1147.88 45.5195 1133.6 40.5 1115.08 40.5V44.5C1132.89 44.5 1145.95 49.3139 1154.62 58.6137L1157.54 55.8862ZM1115.08 40.5C1096.56 40.5 1082.28 45.5195 1072.62 55.8862L1075.54 58.6137C1084.21 49.3139 1097.27 44.5 1115.08 44.5V40.5ZM1072.63 55.8738C1062.94 66.0924 1058.33 82.6405 1058.33 105H1062.33C1062.33 83.0262 1066.89 67.7409 1075.53 58.6262L1072.63 55.8738ZM1058.33 105C1058.33 127.683 1062.93 144.403 1072.63 154.626L1075.53 151.874C1066.89 142.763 1062.33 127.317 1062.33 105H1058.33ZM1072.64 154.639C1082.31 164.658 1096.58 169.5 1115.08 169.5V165.5C1097.25 165.5 1084.18 160.842 1075.52 151.861L1072.64 154.639ZM1425.63 142.25L1423.75 142.916L1423.75 142.925L1423.76 142.933L1425.63 142.25ZM1435.38 156.25L1434.09 157.772L1434.1 157.787L1434.12 157.8L1435.38 156.25ZM1453.13 164.75L1452.61 166.68L1452.63 166.686L1452.66 166.693L1453.13 164.75ZM1508.38 164.75L1508.87 166.69L1508.89 166.686L1508.9 166.682L1508.38 164.75ZM1526.38 156.25L1527.65 157.8L1527.67 157.787L1527.68 157.772L1526.38 156.25ZM1536.13 142.25L1538.01 142.933L1538.02 142.925L1538.02 142.916L1536.13 142.25ZM1539.13 5V3H1537.13V5H1539.13ZM1596.63 5H1598.63V3H1596.63V5ZM1591.13 159.5L1589.24 158.859L1589.24 158.872L1589.23 158.885L1591.13 159.5ZM1572.63 187L1571.34 185.475V185.475L1572.63 187ZM1536.88 204.25L1537.39 206.186L1537.39 206.184L1537.4 206.182L1536.88 204.25ZM1424.63 204.25L1424.11 206.181L1424.13 206.184L1424.14 206.188L1424.63 204.25ZM1389.13 187L1387.84 188.525L1389.13 187ZM1370.38 159.5L1368.48 160.115L1368.49 160.128L1368.49 160.141L1370.38 159.5ZM1365.13 5V3H1363.13V5H1365.13ZM1422.63 5H1424.63V3H1422.63V5ZM1420.63 122.5C1420.63 130.173 1421.66 136.99 1423.75 142.916L1427.52 141.584C1425.61 136.177 1424.63 129.827 1424.63 122.5H1420.63ZM1423.76 142.933C1425.87 148.762 1429.33 153.717 1434.09 157.772L1436.68 154.728C1432.44 151.116 1429.39 146.738 1427.51 141.567L1423.76 142.933ZM1434.12 157.8C1438.89 161.689 1445.09 164.628 1452.61 166.68L1453.66 162.82C1446.52 160.872 1440.88 158.144 1436.65 154.7L1434.12 157.8ZM1452.66 166.693C1460.37 168.576 1469.79 169.5 1480.88 169.5V165.5C1469.98 165.5 1460.9 164.59 1453.61 162.807L1452.66 166.693ZM1480.88 169.5C1491.98 169.5 1501.32 168.577 1508.87 166.69L1507.9 162.81C1500.78 164.59 1491.79 165.5 1480.88 165.5V169.5ZM1508.9 166.682C1516.59 164.633 1522.87 161.695 1527.65 157.8L1525.12 154.7C1520.9 158.138 1515.18 160.867 1507.87 162.818L1508.9 166.682ZM1527.68 157.772C1532.44 153.717 1535.89 148.762 1538.01 142.933L1534.26 141.567C1532.37 146.738 1529.33 151.116 1525.09 154.728L1527.68 157.772ZM1538.02 142.916C1540.11 136.99 1541.13 130.173 1541.13 122.5H1537.13C1537.13 129.827 1536.16 136.177 1534.25 141.584L1538.02 142.916ZM1541.13 122.5V5H1537.13V122.5H1541.13ZM1539.13 7H1596.63V3H1539.13V7ZM1594.63 5V122.5H1598.63V5H1594.63ZM1594.63 122.5C1594.63 136.159 1592.82 148.27 1589.24 158.859L1593.03 160.141C1596.78 149.063 1598.63 136.507 1598.63 122.5H1594.63ZM1589.23 158.885C1585.85 169.358 1579.9 178.212 1571.34 185.475L1573.93 188.525C1583.04 180.788 1589.42 171.309 1593.04 160.115L1589.23 158.885ZM1571.34 185.475C1562.8 192.73 1551.18 198.369 1536.37 202.318L1537.4 206.182C1552.59 202.131 1564.81 196.27 1573.93 188.525L1571.34 185.475ZM1536.38 202.314C1521.77 206.09 1503.29 208 1480.88 208V212C1503.48 212 1522.33 210.077 1537.39 206.186L1536.38 202.314ZM1480.88 208C1458.48 208 1439.91 206.09 1425.13 202.312L1424.14 206.188C1439.36 210.076 1458.29 212 1480.88 212V208ZM1425.16 202.319C1410.52 198.372 1398.98 192.733 1390.43 185.475L1387.84 188.525C1396.96 196.267 1409.08 202.128 1424.11 206.181L1425.16 202.319ZM1390.43 185.475C1381.87 178.207 1375.83 169.344 1372.28 158.859L1368.49 160.141C1372.27 171.323 1378.73 180.793 1387.84 188.525L1390.43 185.475ZM1372.29 158.885C1368.86 148.288 1367.13 136.168 1367.13 122.5H1363.13C1363.13 136.499 1364.91 149.046 1368.48 160.115L1372.29 158.885ZM1367.13 122.5V5H1363.13V122.5H1367.13ZM1365.13 7H1422.63V3H1365.13V7ZM1420.63 5V122.5H1424.63V5H1420.63ZM1610.34 39.5L1608.59 38.5253L1608.58 38.5409L1608.58 38.5567L1610.34 39.5ZM1629.84 20L1630.93 21.6783L1629.84 20ZM1665.34 5.74998L1665.82 7.69027L1665.84 7.68768L1665.85 7.68499L1665.34 5.74998ZM1776.09 5.49999L1775.62 7.44514L1775.64 7.44809L1775.65 7.45087L1776.09 5.49999ZM1813.34 19.75L1812.26 21.4323L1812.27 21.4392L1812.28 21.446L1813.34 19.75ZM1833.09 40L1831.3 40.8944L1831.3 40.9023L1831.31 40.9102L1833.09 40ZM1837.59 63L1837.76 64.9925L1839.4 64.8498L1839.58 63.2116L1837.59 63ZM1780.09 68L1778.1 67.8104L1777.87 70.2005L1780.26 69.9925L1780.09 68ZM1777.84 58.25L1776.07 59.1815L1776.1 59.2382L1776.13 59.2929L1777.84 58.25ZM1749.59 44.5L1749.25 46.4716L1749.59 44.5ZM1692.59 44L1692.82 45.9872L1692.83 45.985L1692.85 45.9824L1692.59 44ZM1674.84 47.75L1675.47 49.6474L1675.5 49.6369L1675.53 49.6255L1674.84 47.75ZM1665.09 53.25L1663.62 51.8934L1665.09 53.25ZM1689.34 75.75L1688.98 77.7171L1688.99 77.7184L1689.34 75.75ZM1717.59 79.75L1717.37 81.7378L1717.38 81.7395L1717.4 81.741L1717.59 79.75ZM1749.84 83.75L1749.54 85.7274L1749.84 83.75ZM1782.09 90.5L1781.57 92.4309L1781.58 92.4348L1781.6 92.4384L1782.09 90.5ZM1810.09 101.75L1809.07 103.471L1809.09 103.483L1809.11 103.495L1810.09 101.75ZM1830.09 119.75L1828.44 120.877L1830.09 119.75ZM1831.84 168.5L1833.61 169.426L1833.62 169.418L1833.62 169.41L1831.84 168.5ZM1812.59 188.75L1811.46 187.1L1812.59 188.75ZM1777.09 204L1776.56 202.07L1777.09 204ZM1666.34 204.5L1665.87 206.445L1665.88 206.446L1666.34 204.5ZM1629.09 190L1627.99 191.669L1628 191.68L1628.02 191.691L1629.09 190ZM1609.09 169L1607.29 169.879L1607.3 169.894L1607.31 169.91L1609.09 169ZM1604.59 144.75L1604.42 142.758L1602.76 142.901L1602.6 144.551L1604.59 144.75ZM1662.09 139.75L1664.08 139.949L1664.32 137.549L1661.92 137.758L1662.09 139.75ZM1664.34 149.75L1666.09 148.786L1664.34 149.75ZM1674.09 158.75L1673.1 160.486L1673.12 160.5L1673.15 160.513L1674.09 158.75ZM1692.84 165L1693.26 163.044L1692.84 165ZM1749.84 166L1750.11 167.982L1749.84 166ZM1777.09 155.5L1775.53 154.251L1775.52 154.257L1775.52 154.264L1777.09 155.5ZM1772.59 135.25L1771.56 136.965L1771.58 136.978L1771.6 136.99L1772.59 135.25ZM1752.59 128.5L1752.19 130.46L1752.21 130.464L1752.24 130.468L1752.59 128.5ZM1724.59 124.5L1724.78 122.509L1724.59 124.5ZM1692.34 121L1692.58 119.015L1692.34 121ZM1631.84 105.25L1630.87 107.002L1630.88 107.006L1630.89 107.01L1631.84 105.25ZM1612.09 87.75L1610.45 88.8944L1612.09 87.75ZM1606.59 60.5C1606.59 54.0528 1608.4 47.3746 1612.1 40.4433L1608.58 38.5567C1604.62 45.9587 1602.59 53.2806 1602.59 60.5H1606.59ZM1612.09 40.4747C1615.89 33.6667 1622.12 27.3869 1630.93 21.6783L1628.75 18.3217C1619.56 24.2798 1612.79 31 1608.59 38.5253L1612.09 40.4747ZM1630.93 21.6783C1639.68 16.003 1651.29 11.3236 1665.82 7.69027L1664.85 3.8097C1650.05 7.50974 1638 12.3303 1628.75 18.3217L1630.93 21.6783ZM1665.85 7.68499C1680.29 3.90888 1698.28 1.99998 1719.84 1.99998V-2.00001C1698.07 -2.00001 1679.72 -0.0755768 1664.83 3.81499L1665.85 7.68499ZM1719.84 1.99998C1741.91 1.99998 1760.49 3.82629 1775.62 7.44514L1776.56 3.55483C1761.02 -0.159645 1742.11 -2.00001 1719.84 -2.00001V1.99998ZM1775.65 7.45087C1791.01 10.9198 1803.19 15.6004 1812.26 21.4323L1814.42 18.0676C1804.83 11.8996 1792.17 7.08018 1776.53 3.54911L1775.65 7.45087ZM1812.28 21.446C1821.39 27.1388 1827.67 33.6382 1831.3 40.8944L1834.88 39.1056C1830.84 31.0285 1823.96 24.0278 1814.4 18.054L1812.28 21.446ZM1831.31 40.9102C1834.98 48.0895 1836.39 55.3684 1835.6 62.7884L1839.58 63.2116C1840.46 54.965 1838.87 46.9105 1834.87 39.0898L1831.31 40.9102ZM1837.42 61.0075L1779.92 66.0075L1780.26 69.9925L1837.76 64.9925L1837.42 61.0075ZM1782.08 68.1896C1782.46 64.2588 1781.61 60.5763 1779.55 57.2071L1776.13 59.2929C1777.74 61.9236 1778.39 64.7412 1778.1 67.8104L1782.08 68.1896ZM1779.61 57.3185C1777.68 53.6469 1774.11 50.6497 1769.23 48.2111L1767.45 51.7889C1771.9 54.017 1774.67 56.5197 1776.07 59.1815L1779.61 57.3185ZM1769.23 48.2111C1764.32 45.7564 1757.86 43.8794 1749.93 42.5284L1749.25 46.4716C1756.98 47.7873 1763.02 49.5769 1767.45 51.7889L1769.23 48.2111ZM1749.93 42.5284C1741.94 41.1694 1731.99 40.5 1720.09 40.5V44.5C1731.86 44.5 1741.57 45.1639 1749.25 46.4716L1749.93 42.5284ZM1720.09 40.5C1709.2 40.5 1699.94 41.0021 1692.33 42.0175L1692.85 45.9824C1700.24 44.9979 1709.31 44.5 1720.09 44.5V40.5ZM1692.36 42.0128C1684.95 42.8557 1678.85 44.1304 1674.15 45.8745L1675.53 49.6255C1679.83 48.0363 1685.57 46.811 1692.82 45.9872L1692.36 42.0128ZM1674.21 45.8526C1669.56 47.4011 1665.95 49.3716 1663.62 51.8934L1666.56 54.6066C1668.23 52.795 1671.12 51.0989 1675.47 49.6474L1674.21 45.8526ZM1663.62 51.8934C1661.37 54.3282 1660.09 57.0412 1660.09 60H1664.09C1664.09 58.2921 1664.81 56.5051 1666.56 54.6065L1663.62 51.8934ZM1660.09 60C1660.09 62.5808 1660.84 64.9226 1662.36 66.95C1663.87 68.9511 1666.04 70.5501 1668.74 71.8124L1670.44 68.1876C1668.14 67.1166 1666.56 65.8822 1665.56 64.55C1664.59 63.2441 1664.09 61.7525 1664.09 60H1660.09ZM1668.74 71.8124C1673.95 74.2441 1680.72 76.2001 1688.98 77.7171L1689.7 73.7829C1681.63 72.2998 1675.22 70.4226 1670.44 68.1876L1668.74 71.8124ZM1688.99 77.7184C1697.37 79.228 1706.83 80.5673 1717.37 81.7378L1717.81 77.7622C1707.34 76.5994 1697.97 75.272 1689.69 73.7816L1688.99 77.7184ZM1717.4 81.741C1727.86 82.7373 1738.57 84.066 1749.54 85.7274L1750.14 81.7726C1739.1 80.1007 1728.32 78.7627 1717.78 77.759L1717.4 81.741ZM1749.54 85.7274C1760.47 87.383 1771.14 89.6177 1781.57 92.4309L1782.61 88.5691C1772.04 85.7156 1761.21 83.4503 1750.14 81.7726L1749.54 85.7274ZM1781.6 92.4384C1791.94 95.0647 1801.09 98.7476 1809.07 103.471L1811.11 100.029C1802.76 95.0857 1793.24 91.2686 1782.58 88.5615L1781.6 92.4384ZM1809.11 103.495C1817.2 108.022 1823.62 113.818 1828.44 120.877L1831.74 118.623C1826.56 111.015 1819.65 104.811 1811.07 100.005L1809.11 103.495ZM1828.44 120.877C1833.17 127.811 1835.59 136.479 1835.59 147H1839.59C1839.59 135.854 1837.01 126.356 1831.74 118.623L1828.44 120.877ZM1835.59 147C1835.59 153.452 1833.78 160.307 1830.06 167.59L1833.62 169.41C1837.57 161.693 1839.59 154.215 1839.59 147H1835.59ZM1830.07 167.573C1826.43 174.539 1820.27 181.062 1811.46 187.1L1813.72 190.4C1822.91 184.105 1829.59 177.127 1833.61 169.426L1830.07 167.573ZM1811.46 187.1C1802.7 193.102 1791.09 198.108 1776.56 202.07L1777.62 205.93C1792.42 201.892 1804.48 196.732 1813.72 190.4L1811.46 187.1ZM1776.56 202.07C1762.12 206.009 1744.15 208 1722.59 208V212C1744.37 212 1762.72 209.991 1777.62 205.93L1776.56 202.07ZM1722.59 208C1700.69 208 1682.1 206.174 1666.8 202.554L1665.88 206.446C1681.58 210.159 1700.49 212 1722.59 212V208ZM1666.8 202.555C1651.61 198.92 1639.41 194.155 1630.16 188.309L1628.02 191.691C1637.77 197.845 1650.41 202.746 1665.87 206.445L1666.8 202.555ZM1630.19 188.331C1621.07 182.304 1614.68 175.544 1610.87 168.09L1607.31 169.91C1611.5 178.123 1618.44 185.362 1627.99 191.669L1630.19 188.331ZM1610.89 168.121C1607.21 160.607 1605.79 152.896 1606.58 144.949L1602.6 144.551C1601.73 153.27 1603.3 161.726 1607.29 169.879L1610.89 168.121ZM1604.76 146.742L1662.26 141.742L1661.92 137.758L1604.42 142.758L1604.76 146.742ZM1660.1 139.551C1659.72 143.34 1660.59 147.076 1662.59 150.714L1666.09 148.786C1664.43 145.758 1663.79 142.827 1664.08 139.949L1660.1 139.551ZM1662.59 150.714C1664.66 154.477 1668.24 157.709 1673.1 160.486L1675.08 157.014C1670.61 154.458 1667.69 151.69 1666.09 148.786L1662.59 150.714ZM1673.15 160.513C1678.04 163.135 1684.49 165.268 1692.42 166.956L1693.26 163.044C1685.52 161.398 1679.47 159.365 1675.03 156.987L1673.15 160.513ZM1692.42 166.956C1700.44 168.662 1710.43 169.5 1722.34 169.5V165.5C1710.59 165.5 1700.9 164.671 1693.26 163.044L1692.42 166.956ZM1722.34 169.5C1733.39 169.5 1742.66 168.998 1750.11 167.982L1749.57 164.018C1742.36 165.002 1733.29 165.5 1722.34 165.5V169.5ZM1750.11 167.982C1757.53 166.969 1763.63 165.523 1768.34 163.602L1766.84 159.898C1762.55 161.644 1756.81 163.031 1749.57 164.018L1750.11 167.982ZM1768.34 163.602C1772.98 161.712 1776.52 159.464 1778.66 156.736L1775.52 154.264C1773.99 156.203 1771.2 158.121 1766.84 159.898L1768.34 163.602ZM1778.65 156.749C1780.91 153.92 1782.09 150.736 1782.09 147.25H1778.09C1778.09 149.764 1777.26 152.08 1775.53 154.251L1778.65 156.749ZM1782.09 147.25C1782.09 141.27 1779.12 136.65 1773.58 133.51L1771.6 136.99C1776.06 139.517 1778.09 142.897 1778.09 147.25H1782.09ZM1773.62 133.535C1768.34 130.368 1761.42 128.057 1752.94 126.532L1752.24 130.468C1760.43 131.943 1766.84 134.132 1771.56 136.965L1773.62 133.535ZM1752.99 126.54C1744.74 124.856 1735.33 123.514 1724.78 122.509L1724.4 126.491C1734.85 127.486 1744.11 128.81 1752.19 130.46L1752.99 126.54ZM1724.78 122.509C1714.3 121.511 1703.56 120.346 1692.58 119.015L1692.1 122.985C1703.12 124.321 1713.88 125.489 1724.4 126.491L1724.78 122.509ZM1692.58 119.015C1681.64 117.689 1670.96 115.866 1660.52 113.548L1659.66 117.452C1670.22 119.8 1681.04 121.645 1692.1 122.985L1692.58 119.015ZM1660.52 113.548C1650.18 111.249 1640.94 107.892 1632.79 103.49L1630.89 107.01C1639.41 111.608 1649 115.084 1659.66 117.452L1660.52 113.548ZM1632.81 103.498C1624.89 99.1362 1618.54 93.5041 1613.73 86.6056L1610.45 88.8944C1615.64 96.3292 1622.46 102.364 1630.87 107.002L1632.81 103.498ZM1613.73 86.6056C1609.02 79.8524 1606.59 71.1971 1606.59 60.5H1602.59C1602.59 71.8029 1605.16 81.3142 1610.45 88.8944L1613.73 86.6056ZM1847.56 205H1845.56V207H1847.56V205ZM1847.56 5V3H1845.56V5H1847.56ZM2028.06 5H2030.06V3H2028.06V5ZM2028.06 47.5V49.5H2030.06V47.5H2028.06ZM1905.06 47.5V45.5H1903.06V47.5H1905.06ZM1905.06 77.5H1903.06V79.5H1905.06V77.5ZM2010.56 77.5H2012.56V75.5H2010.56V77.5ZM2010.56 120V122H2012.56V120H2010.56ZM1905.06 120V118H1903.06V120H1905.06ZM1905.06 162.5H1903.06V164.5H1905.06V162.5ZM2030.56 162.5H2032.56V160.5H2030.56V162.5ZM2030.56 205V207H2032.56V205H2030.56ZM1849.56 205V5H1845.56V205H1849.56ZM1847.56 7H2028.06V3H1847.56V7ZM2026.06 5V47.5H2030.06V5H2026.06ZM2028.06 45.5H1905.06V49.5H2028.06V45.5ZM1903.06 47.5V77.5H1907.06V47.5H1903.06ZM1905.06 79.5H2010.56V75.5H1905.06V79.5ZM2008.56 77.5V120H2012.56V77.5H2008.56ZM2010.56 118H1905.06V122H2010.56V118ZM1903.06 120V162.5H1907.06V120H1903.06ZM1905.06 164.5H2030.56V160.5H1905.06V164.5ZM2028.56 162.5V205H2032.56V162.5H2028.56ZM2030.56 203H1847.56V207H2030.56V203Z" fill="url(#paint0_linear_56_269)"/>
</g>
<defs>
<linearGradient id="paint0_linear_56_269" x1="959.5" y1="-64" x2="959.5" y2="283" gradientUnits="userSpaceOnUse">
<stop stop-color="white"/>
<stop offset="1" stop-color="white" stop-opacity="0"/>
</linearGradient>
</defs>
</svg>
