<svg width="11" height="11" viewBox="0 0 11 11" fill="none" xmlns="http://www.w3.org/2000/svg">
<g clip-path="url(#clip0_1_1610)">
<path d="M5.28681 2.50627C3.82743 2.50627 2.65029 3.68341 2.65029 5.14281C2.65029 6.60219 3.82744 7.77933 5.28681 7.77933C6.74621 7.77933 7.92335 6.60218 7.92335 5.14281C7.92335 3.68341 6.74621 2.50627 5.28681 2.50627ZM5.28681 6.85688C4.34373 6.85688 3.57273 6.08818 3.57273 5.14281C3.57273 4.19741 4.34144 3.42871 5.28681 3.42871C6.23221 3.42871 7.00091 4.19741 7.00091 5.14281C7.00091 6.08818 6.22992 6.85688 5.28681 6.85688ZM8.64617 2.39841C8.64617 2.05881 8.37081 1.78346 8.03121 1.78346C7.69161 1.78346 7.41625 2.05881 7.41625 2.39841C7.41625 2.73801 7.6893 3.01337 8.03121 3.01337C8.37081 3.01337 8.64617 2.74032 8.64617 2.39841ZM10.3924 3.02256C10.3534 2.19878 10.1652 1.46909 9.56173 0.86789C8.96053 0.266713 8.23085 0.0785479 7.40706 0.0372492C6.55804 -0.0109516 4.01329 -0.0109516 3.16427 0.0372492C2.3428 0.0762401 1.61311 0.264405 1.00962 0.865604C0.406134 1.4668 0.220256 2.19649 0.178956 3.02027C0.130778 3.86929 0.130778 6.41402 0.178956 7.26304C0.217969 8.08682 0.406134 8.81651 1.00962 9.41771C1.6131 10.0189 2.3405 10.207 3.16427 10.2484C4.01329 10.2965 6.55804 10.2965 7.40706 10.2484C8.23085 10.2094 8.96053 10.0212 9.56173 9.41771C10.1629 8.81651 10.3511 8.08682 10.3924 7.26304C10.4406 6.41402 10.4406 3.87157 10.3924 3.02256V3.02256ZM9.29554 8.17402C9.11657 8.62376 8.77009 8.97026 8.31804 9.15152C7.64112 9.42 6.03487 9.35804 5.28681 9.35804C4.53877 9.35804 2.93023 9.41771 2.2556 9.15152C1.80586 8.97255 1.45936 8.62607 1.2781 8.17402C1.00962 7.4971 1.07158 5.89085 1.07158 5.14281C1.07158 4.39475 1.01191 2.78622 1.2781 2.11158C1.45708 1.66184 1.80356 1.31534 2.2556 1.13408C2.93252 0.865602 4.53877 0.927562 5.28681 0.927562C6.03487 0.927562 7.6434 0.867887 8.31804 1.13408C8.76778 1.31305 9.11428 1.65954 9.29554 2.11158C9.56402 2.7885 9.50206 4.39475 9.50206 5.14281C9.50206 5.89086 9.56402 7.49939 9.29554 8.17402Z" fill="#7A7AA9"/>
</g>
<defs>
<clipPath id="clip0_1_1610">
<rect width="10.2857" height="10.2857" fill="white" transform="translate(0.142822)"/>
</clipPath>
</defs>
</svg>
