<svg width="24" height="20" viewBox="0 0 24 20" fill="none" xmlns="http://www.w3.org/2000/svg">
<path d="M21.2497 5.4253C22.1965 4.73399 23.0231 3.8774 23.6842 2.91563C22.8126 3.2913 21.8659 3.56185 20.889 3.66702C21.8959 3.06593 22.6623 2.11916 23.023 0.992017C22.0912 1.54807 21.0393 1.95382 19.9423 2.1642C19.0555 1.21744 17.7932 0.631348 16.3956 0.631348C13.7056 0.631348 11.5415 2.81041 11.5415 5.48541C11.5415 5.86112 11.5866 6.23679 11.6617 6.59746C7.63427 6.38704 4.0425 4.46348 1.65305 1.51798C1.23221 2.23932 0.991836 3.06587 0.991836 3.96755C0.991836 5.6507 1.84838 7.13847 3.15583 8.0101C2.3594 7.98011 1.60793 7.75469 0.961757 7.39401V7.4541C0.961757 9.8135 2.62991 11.7671 4.85406 12.218C4.44835 12.3232 4.01251 12.3833 3.57672 12.3833C3.26108 12.3833 2.96054 12.3532 2.65995 12.3082C3.27613 14.2318 5.06449 15.6294 7.19847 15.6745C5.53032 16.9819 3.44137 17.7484 1.17218 17.7484C0.766427 17.7484 0.390758 17.7333 0 17.6883C2.14904 19.0708 4.70377 19.8673 7.45393 19.8673C16.3807 19.8673 21.2648 12.4734 21.2648 6.05649C21.2648 5.84611 21.2648 5.63565 21.2497 5.42527L21.2497 5.4253Z" fill="#7A7AA9"/>
</svg>
